<?xml version="1.0" encoding="utf-8"?>
<!-- Generator: Adobe Illustrator 16.0.0, SVG Export Plug-In . SVG Version: 6.00 Build 0)  -->
<!DOCTYPE svg PUBLIC "-//W3C//DTD SVG 1.1//EN" "http://www.w3.org/Graphics/SVG/1.1/DTD/svg11.dtd">
<svg version="1.1" id="Layer_1" xmlns="http://www.w3.org/2000/svg" xmlns:xlink="http://www.w3.org/1999/xlink" x="0px" y="0px"
	 width="93.597px" height="75.096px" viewBox="0 0 93.597 75.096" enable-background="new 0 0 93.597 75.096" xml:space="preserve">
<g id="Link">
	<g>
		<path d="M43.339,61.726c5.887-0.816,11.002-2.573,15.338-6.325c0.677,0.412,1.291,0.788,1.906,1.162
			c2.272,1.379,4.602,2.677,6.812,4.154c3.665,2.455,9.307,0.694,11.507-2.806c2.229-3.544,1.803-8.191-1.202-10.993
			c-1.124-1.051-2.553-1.787-3.885-2.6C67.716,40.6,61.562,36.968,55.513,33.17c-2.332-1.463-6.863-1.549-9.098,0.479
			c0.777,0.851,1.563,1.708,2.372,2.592c-4.877,0-9.672,0-14.475,0c0-4.986,0-9.738,0-14.868c1.006,0.911,1.717,1.554,2.479,2.244
			c0.291-0.176,0.563-0.309,0.801-0.485c4.875-3.653,10.412-4.917,16.371-4.282c3.396,0.361,6.543,1.715,9.463,3.465
			c6.218,3.725,12.397,7.512,18.576,11.304c4.114,2.525,7.539,5.728,9.523,10.233c2.881,6.544,2.784,13.009-0.473,19.435
			c-1.715,3.384-4.127,6.121-7.266,8.169c-4.515,2.949-9.471,4.097-14.884,3.479c-3.787-0.431-7.103-1.96-10.291-3.854
			c-4.526-2.688-9.008-5.456-13.507-8.193C44.624,62.592,44.158,62.265,43.339,61.726z"/>
		<path d="M45.82,41.509c-0.68-0.771-1.291-1.462-1.998-2.262c4.899,0,9.64,0,14.376,0c0,4.972,0,9.742,0,14.515
			c-0.117,0.06-0.234,0.119-0.352,0.179c-0.692-0.882-1.387-1.763-1.986-2.526c-2.095,1.197-3.734,2.335-5.527,3.121
			c-6.47,2.833-12.986,2.959-19.25-0.495c-5.475-3.018-10.781-6.339-16.158-9.53c-2.998-1.78-6.059-3.487-8.51-6.028
			c-5.38-5.575-7.41-12.209-5.961-19.813C1.589,12.714,4.798,8.005,9.808,4.654c4.287-2.868,9.08-4.02,14.275-3.554
			c4.115,0.369,7.719,1.998,11.174,4.097c4.278,2.603,8.556,5.208,12.83,7.815c0.201,0.123,0.383,0.283,0.709,0.527
			c-5.782,0.676-10.891,2.529-15.338,6.261c-2.311-1.397-4.664-2.646-6.82-4.169c-2.973-2.104-7.864-1.876-10.769,1.103
			c-4.165,4.275-3.122,10.717,1.253,13.39c6.635,4.052,13.268,8.105,19.916,12.129C39.607,43.803,43.446,43.487,45.82,41.509z"/>
	</g>
</g>
</svg>
